# xmcd
# 
# Track frame offsets:
#     150
#     32320
#     61165
#     119760
#     161065
#     190940
#     207837
# 
# Disc length: 3160
# 
# Revision: 41
# Processed by: cddbd v1.5.2PL0 Copyright (c) Steve Scherf et al.
# Submitted via: fre:ac v1.0.17
# 
DISCID=5b0c5607
DTITLE=Eric Clapton - 24 Nights
DYEAR=1991
DGENRE=Rock
TTITLE0=Pretending
TTITLE1=Bad Love
TTITLE2=Old Love
TTITLE3=Wonderful Tonight
TTITLE4=Bell Bottom Blues
TTITLE5=Hard Times
TTITLE6=Edge Of Darkness
EXTD=This is an all live recording. No overdubs or fixes\n\nRecorded live at the Royal Albert Hall, London, 1990 and 1991 YEAR: 1991
EXTT0=(9 piece band)
EXTT1=(9 piece band)
EXTT2=(9 piece band)
EXTT3=(9 piece band)
EXTT4=(9 piece band)
EXTT5=(also National Philharmonic Orchestra directed by Nichael Kamen)
EXTT6=(also National Philharmonic Orchestra directed by Nichael Kamen)
PLAYORDER=
